<svg width="92" height="93" viewBox="0 0 92 93" fill="none" xmlns="http://www.w3.org/2000/svg">
<path fill-rule="evenodd" clip-rule="evenodd" d="M52.8429 0.905176C49.5334 1.1496 46.2063 3.13093 39.552 7.09359L14.0885 22.2572C7.43414 26.2199 4.10698 28.2012 2.31535 30.9945C0.670885 33.5584 -0.0968847 36.5868 0.127462 39.6244C0.371885 42.9339 2.35322 46.2611 6.31588 52.9154L21.4795 78.3789C25.4421 85.0332 27.4235 88.3604 30.2168 90.152C32.7807 91.7965 35.8091 92.5642 38.8467 92.3399C42.1562 92.0955 45.4834 90.1141 52.1377 86.1515L77.6012 70.9879C84.2555 67.0252 87.5827 65.0439 89.3743 62.2506C91.0188 59.6867 91.7865 56.6583 91.5622 53.6207C91.3178 50.3112 89.3364 46.984 85.3738 40.3297L70.2102 14.8662C66.2475 8.21185 64.2662 4.88469 61.4729 3.09306C58.909 1.4486 55.8806 0.68083 52.8429 0.905176ZM45.6291 55.3205C46.1619 57.5007 47.2624 59.4038 48.9307 61.0298C50.599 62.6558 52.6939 63.7885 55.2154 64.4277C57.142 64.9161 58.9703 65.0188 60.7005 64.7356C62.4662 64.4313 63.9565 63.7264 65.1715 62.6209C66.4149 61.5225 67.2622 60.0832 67.7136 58.3028C68.2151 56.3246 68.0357 54.5347 67.1753 52.9331C66.3505 51.3104 64.8488 49.6815 62.6702 48.0465L59.7842 45.8712C58.9708 45.274 58.4193 44.7732 58.1298 44.369C57.8758 43.9437 57.8133 43.4767 57.9422 42.968C58.0927 42.3746 58.4304 41.994 58.9553 41.8263C59.4874 41.6304 60.136 41.6294 60.9009 41.8233C61.8925 42.0747 62.6816 42.5304 63.2681 43.1904C63.8546 43.8504 64.3588 44.7752 64.7809 45.965L70.6138 43.4737C70.2009 41.5344 69.3159 39.8513 67.9589 38.4246C66.602 36.9978 64.7619 35.9899 62.4387 35.401C60.5405 34.9197 58.7546 34.8279 57.0811 35.1254C55.4359 35.4302 54.0271 36.1106 52.8548 37.1668C51.7179 38.202 50.9417 39.539 50.5262 41.1781C50.0462 43.0715 50.2292 44.8473 51.0752 46.5054C51.9496 48.1707 53.4194 49.8066 55.4846 51.4129L58.0521 53.4172C59.0352 54.1778 59.6857 54.7637 60.0035 55.1751C60.3213 55.5866 60.4015 56.1031 60.2438 56.7248C59.8999 58.0813 58.7647 58.5153 56.8382 58.0269C55.4216 57.6678 54.3141 57.0411 53.5156 56.1469C52.7171 55.2527 52.0467 54.1504 51.5045 52.84L45.6291 55.3205ZM37.6546 29.659L30.3451 27.8059L23.2523 55.7829L42.1636 60.5774L43.8293 54.007L32.2275 51.0657L37.6546 29.659Z" fill="#087AEE"/>
</svg>
